# xmcd
#
# Track frame offsets:
#	150
#	21382
#	43657
#	67242
#	83850
#	103395
#	122175
#	145375
#	165247
#	188045
#
# Disc length: 2757 seconds
#
# Revision: 6
# Processed by: cddbd v1.5.2PL0 Copyright (c) Steve Scherf et al.
# Submitted via: EasyCDDAExtractor 15.3.0.1
#
DISCID=910ac30a
DTITLE=Emmanuel - Vida
DYEAR=1990
DGENRE=Latin
TTITLE0=Bella Señora
TTITLE1=No He Podido Verte
TTITLE2=Cambiare
TTITLE3=Manual
TTITLE4=Amor Dividido (Duo Con Rosana)
TTITLE5=Jarro Pichao
TTITLE6=Animal
TTITLE7=Una Nueva Vida
TTITLE8=Causa Perdida
TTITLE9=Creeme
EXTD=
EXTT0=
EXTT1=
EXTT2=
EXTT3=
EXTT4=
EXTT5=
EXTT6=
EXTT7=
EXTT8=
EXTT9=
PLAYORDER=
